<svg width="25" height="19" viewBox="0 0 25 19" xmlns="http://www.w3.org/2000/svg" class="dark:fill-op-90 dark:fill-white">
    <path fill-rule="evenodd" clip-rule="evenodd" d="
        M12.5 0L25 4.75V14.25L12.5 19L0 14.25V4.75L12.5 0Z
        M12.5 3L20 6V13L12.5 16L5 13V6L12.5 3Z
        M12.5 6L16 7.5V11.5L12.5 13L9 11.5V7.5L12.5 6Z
        M3 2L7 3.5V7L3 5.5V2Z
        M22 2L18 3.5V7L22 5.5V2Z
        M3 12L7 13.5V17L3 15.5V12Z
        M22 12L18 13.5V17L22 15.5V12Z
    " fill="current">
    </path>
    
    <!-- Add some decorative circles for extra flair -->
    <circle cx="12.5" cy="9.5" r="1" fill="current"/>
    <circle cx="3" cy="3.5" r="0.5" fill="current"/>
    <circle cx="22" cy="3.5" r="0.5" fill="current"/>
    <circle cx="3" cy="15.5" r="0.5" fill="current"/>
    <circle cx="22" cy="15.5" r="0.5" fill="current"/>
</svg>